<svg width="1452" height="286" viewBox="0 0 1452 286" fill="none" xmlns="http://www.w3.org/2000/svg">
<path d="M244.66 41.63V9.97C244.66 4.81 240.48 0.630005 235.32 0.630005H212.44C207.28 0.630005 203.1 4.81 203.1 9.97V41.63H230.41H244.66Z" fill="#1D1D1B"/>
<path d="M203.09 276.61C203.09 281.77 207.27 285.95 212.43 285.95H235.31C240.47 285.95 244.65 281.77 244.65 276.61V244.95H203.09V276.61Z" fill="#1D1D1B"/>
<path d="M255.18 163.51H262.81H276.82C281.7 163.51 285.66 159.55 285.66 154.67V131.91C285.66 127.03 281.7 123.07 276.82 123.07H269.93H244.66V163.51H255.18Z" fill="#898A8D"/>
<path d="M27.3401 123.07H22.7801H8.92004C4.18004 123.07 0.340088 126.91 0.340088 131.66V154.93C0.340088 159.67 4.18004 163.51 8.92004 163.51H22.7801H29.9401H40.2101V123.07H27.3401Z" fill="#898A8D"/>
<path d="M244.66 160.96V124.2V123.07V82.07H230.41H203.09V123.07V124.2V160.96V204.51H244.66V160.96Z" fill="#1D1D1B"/>
<path d="M163.77 123.07H149.17H122.21H82.3401V163.51H124.39H149.17H157H203.09V123.07H163.77Z" fill="#898A8D"/>
<path d="M276.19 204.51H258.64H244.66H203.1H178.51H176.8H163.77V244.95H176.8H178.51H200.91H242.95H258.64H276.19C281.42 244.95 285.66 240.88 285.66 235.86V213.6C285.66 208.58 281.42 204.51 276.19 204.51Z" fill="#898A8D"/>
<path d="M163.78 204.51V163.51H149.18H122.22V203.05V245.8V276.61C122.22 281.77 126.4 285.95 131.56 285.95H154.44C159.6 285.95 163.78 281.77 163.78 276.61V244.95V204.51Z" fill="#D02C2F"/>
<path d="M276.24 41.63H244.66H243.17H230.42H203.11H176.8H163.78V82.07H176.8H203.09H230.4H243.15H244.64H276.22C281.42 82.07 285.64 78 285.64 72.98V50.73C285.66 45.7 281.44 41.63 276.24 41.63Z" fill="#898A8D"/>
<path d="M163.78 82.07V41.63V9.97C163.78 4.81 159.6 0.630005 154.44 0.630005H131.56C126.4 0.630005 122.22 4.81 122.22 9.97V39.03V83.11V123.06H149.18H163.79L163.78 82.07Z" fill="#D02C2F"/>
<path d="M40.2101 244.95V276.2C40.2101 281.43 44.4501 285.67 49.6801 285.67H72.86C78.09 285.67 82.3301 281.43 82.3301 276.2V244.95H43.0901H40.2101Z" fill="#1D1D1B"/>
<path d="M82.34 10.38C82.34 5.15 78.1 0.910004 72.87 0.910004H49.69C44.46 0.910004 40.22 5.15 40.22 10.38V41.63H82.34V10.38Z" fill="#1D1D1B"/>
<path d="M82.3401 123.87V82.07H40.2101V123.07V163.51V204.51H43.0901H82.3401V161.63V123.87Z" fill="#1D1D1B"/>
<path d="M107.05 204.51H82.3301H79.47H41.23H40.2001H38.22H9.41003C4.39003 204.51 0.320068 208.58 0.320068 213.6V235.85C0.320068 240.87 4.39003 244.94 9.41003 244.94H38.22H40.2001H41.23H79.47H82.3301H107.05H122.21V204.5H107.05V204.51Z" fill="#898A8D"/>
<path d="M103.08 41.63H80.7001H36.85H29.6401H9.42004C4.40004 41.63 0.330078 45.7 0.330078 50.72V72.97C0.330078 77.99 4.40004 82.06 9.42004 82.06H29.6401H36.85H40.2001H77.2001H103.06H122.19V41.62H103.08V41.63Z" fill="#898A8D"/>
<path d="M452.48 60.13C499.22 60.13 537.2 96.52 537.2 143.67C537.2 190.82 500.86 227.41 452.48 227.41C402.68 227.41 367.57 190.83 367.57 143.67C367.57 96.52 406.15 60.13 452.48 60.13ZM452.48 191.8C483.1 191.8 495.75 167.74 495.75 143.67C495.75 119.6 482.28 95.54 452.48 95.54C422.89 95.54 409.01 119.61 409.01 143.67C409 167.74 421.04 191.8 452.48 191.8Z" fill="#1D1D1B"/>
<path d="M614.33 63.06C645.56 63.06 669.24 79.3 669.24 111C669.24 135.25 655.36 151.5 634.75 157.76L692.71 224.48H643.93L592.49 160.69V224.48H554.11V63.06H614.33ZM596.98 134.67C611.48 134.67 628.83 133.7 628.83 113.54C628.83 93.38 611.48 92.41 596.98 92.41H592.49V134.67H596.98Z" fill="#1D1D1B"/>
<path d="M777.6 60.13C824.34 60.13 862.32 96.52 862.32 143.67C862.32 190.82 825.99 227.41 777.6 227.41C727.8 227.41 692.69 190.83 692.69 143.67C692.69 96.52 731.28 60.13 777.6 60.13ZM777.6 191.8C808.22 191.8 820.87 167.74 820.87 143.67C820.87 119.6 807.4 95.54 777.6 95.54C748.01 95.54 734.13 119.61 734.13 143.67C734.13 167.74 746.16 191.8 777.6 191.8Z" fill="#1D1D1B"/>
<path d="M972.11 192.19H1030.07V224.48H933.73V63.06H972.11V192.19Z" fill="#1D1D1B"/>
<path d="M1067.63 60.13L1112.73 91.83L1098.85 109.63L1067.63 87.72L1036.39 109.63L1022.52 91.83L1067.63 60.13ZM1085.58 124.09H1049.46V224.46H1085.58V124.09Z" fill="#D02C2F"/>
<path d="M1159.39 224.47H1121.01V63.06H1159.39L1226.34 163.23H1226.74V63.06H1265.12V224.47H1226.74L1159.8 124.3H1159.39V224.47Z" fill="#1D1D1B"/>
<path d="M1366.96 60.13C1413.7 60.13 1451.67 96.52 1451.67 143.67C1451.67 190.82 1415.34 227.41 1366.96 227.41C1317.16 227.41 1282.05 190.83 1282.05 143.67C1282.05 96.52 1320.63 60.13 1366.96 60.13ZM1366.96 191.8C1397.58 191.8 1410.23 167.74 1410.23 143.67C1410.23 119.6 1396.75 95.54 1366.96 95.54C1337.36 95.54 1323.47 119.61 1323.47 143.67C1323.48 167.74 1335.51 191.8 1366.96 191.8Z" fill="#1D1D1B"/>
</svg>
